<?xml version="1.0" standalone="no"?>
<!DOCTYPE svg PUBLIC "-//W3C//DTD SVG 20010904//EN"
 "http://www.w3.org/TR/2001/REC-SVG-20010904/DTD/svg10.dtd">
<svg version="1.0" xmlns="http://www.w3.org/2000/svg"
 width="128.000000pt" height="128.000000pt" viewBox="0 0 1024.000000 1024.000000"
 preserveAspectRatio="xMidYMid meet">
<metadata>
Created by potrace 1.15, written by Peter Selinger 2001-2017
</metadata>
<g transform="translate(0.000000,1024.000000) scale(0.100000,-0.100000)"
fill="#000000" stroke="none">
<path d="M4850 10211 l0 -28 -107 -7 c-131 -8 -368 -39 -512 -67 -883 -169
-1663 -539 -2362 -1120 -160 -133 -485 -459 -619 -619 -451 -542 -768 -1120
-976 -1782 -104 -332 -192 -787 -211 -1095 l-6 -103 -29 0 -28 0 0 -270 0
-270 28 0 29 0 6 -102 c19 -309 107 -764 211 -1096 208 -662 525 -1240 976
-1782 134 -160 459 -486 619 -619 542 -451 1122 -769 1783 -977 333 -104 775
-190 1091 -210 l107 -7 0 -28 0 -29 270 0 270 0 0 29 0 28 107 7 c385 25 875
130 1288 275 434 154 932 416 1290 680 64 47 74 51 126 51 53 0 59 -2 85 -36
16 -19 51 -59 79 -88 65 -70 85 -94 85 -106 0 -6 5 -10 11 -10 13 0 79 -69 79
-83 0 -10 26 -37 35 -37 9 0 74 -73 75 -83 0 -11 26 -37 36 -37 10 0 55 -51
87 -97 12 -18 26 -33 31 -33 9 0 66 -61 66 -71 0 -10 57 -69 67 -69 4 0 19
-17 33 -38 13 -20 44 -55 67 -78 24 -22 43 -43 43 -47 0 -4 18 -26 40 -49 30
-32 40 -51 40 -75 l0 -33 540 0 540 0 0 290 0 290 -31 0 c-22 0 -40 9 -60 31
-16 17 -29 34 -29 38 0 10 -57 71 -66 71 -5 0 -20 17 -34 37 -29 44 -77 93
-90 93 -5 0 -11 9 -15 19 -6 19 -80 101 -91 101 -8 0 -30 23 -35 37 -4 12 -66
83 -171 195 -27 28 -48 52 -48 55 0 2 -33 39 -74 81 -41 42 -89 94 -108 115
-18 21 -59 66 -90 100 -32 34 -58 66 -58 70 0 11 -26 37 -37 37 -4 0 -17 12
-28 27 -11 14 -26 32 -32 39 -7 7 -13 15 -13 19 0 8 -27 35 -35 35 -3 0 -17
12 -30 27 -18 21 -24 40 -25 75 0 44 6 54 80 150 328 420 598 912 781 1425
143 400 253 913 276 1291 l6 102 29 0 28 0 0 270 0 270 -28 0 -29 0 -6 103
c-19 308 -107 763 -211 1095 -208 662 -525 1240 -976 1782 -134 160 -459 486
-619 619 -699 581 -1479 951 -2362 1120 -144 28 -381 59 -512 67 l-107 7 0 28
0 29 -270 0 -270 0 0 -29z m566 -392 c1212 -71 2315 -590 3144 -1480 317 -341
544 -668 753 -1085 368 -735 531 -1525 489 -2366 -19 -378 -60 -650 -147 -978
-88 -329 -189 -595 -341 -899 -222 -444 -440 -757 -783 -1120 -737 -783 -1716
-1282 -2784 -1421 -486 -63 -1085 -46 -1559 45 -1319 254 -2468 1072 -3151
2245 -78 134 -231 450 -288 594 -110 278 -202 589 -253 854 -111 573 -111
1271 0 1844 127 657 425 1341 814 1868 434 588 1008 1076 1645 1400 759 385
1577 552 2461 499z"/>
</g>
</svg>
