<?xml version="1.0" standalone="no"?>
<!DOCTYPE svg PUBLIC "-//W3C//DTD SVG 20010904//EN"
 "http://www.w3.org/TR/2001/REC-SVG-20010904/DTD/svg10.dtd">
<svg version="1.0" xmlns="http://www.w3.org/2000/svg"
 width="1024.000000pt" height="1024.000000pt" viewBox="0 0 1024.000000 1024.000000"
 preserveAspectRatio="xMidYMid meet">
<metadata>
Created by potrace 1.15, written by Peter Selinger 2001-2017
</metadata>
<g transform="translate(0.000000,1024.000000) scale(0.100000,-0.100000)"
fill="#000000" stroke="none">
<path d="M4665 10225 c-1058 -97 -2018 -497 -2846 -1186 -160 -133 -485 -459
-619 -619 -701 -842 -1105 -1829 -1190 -2904 -13 -166 -13 -626 0 -792 85
-1075 489 -2062 1190 -2904 134 -160 459 -486 619 -619 616 -513 1300 -863
2051 -1051 430 -107 784 -150 1250 -150 466 0 820 43 1250 150 751 188 1434
538 2050 1050 160 134 486 459 619 619 702 844 1106 1828 1191 2905 13 166 13
626 0 792 -85 1075 -489 2062 -1190 2904 -134 160 -459 486 -619 619 -834 694
-1794 1092 -2861 1186 -203 18 -697 18 -895 0z m637 -405 c349 -16 620 -53
934 -130 699 -171 1352 -505 1919 -978 116 -98 459 -441 557 -557 681 -815
1062 -1791 1107 -2834 50 -1168 -331 -2296 -1083 -3206 -114 -138 -449 -476
-581 -587 -919 -768 -2055 -1157 -3231 -1107 -1048 44 -2022 425 -2839 1107
-116 98 -459 441 -557 557 -681 815 -1062 1791 -1107 2834 -51 1181 337 2315
1107 3236 98 116 441 459 557 557 809 676 1792 1062 2820 1107 94 5 172 9 175
9 3 1 103 -3 222 -8z"/>
<path d="M4715 9234 c-16 -2 -66 -9 -110 -15 -280 -36 -653 -129 -920 -229
-561 -209 -1049 -524 -1480 -955 -208 -207 -316 -337 -501 -600 -136 -192
-342 -576 -413 -768 -16 -45 -49 -131 -71 -192 -72 -191 -155 -540 -202 -845
-9 -60 -13 -210 -13 -510 0 -300 4 -450 13 -510 47 -305 130 -654 202 -845 22
-60 55 -147 71 -192 71 -192 277 -576 413 -768 185 -263 293 -393 501 -600
250 -250 526 -466 820 -642 139 -83 433 -228 550 -272 50 -19 137 -51 195 -73
179 -67 566 -159 835 -200 127 -18 903 -18 1030 0 269 41 656 133 835 200 58
22 146 54 195 73 117 44 411 189 550 272 294 176 570 392 820 642 208 207 316
337 501 600 136 192 342 576 413 768 16 45 48 130 70 189 77 207 153 522 203
848 9 60 13 210 13 510 0 300 -4 450 -13 510 -47 305 -130 654 -202 845 -22
61 -55 147 -71 192 -71 192 -277 576 -413 768 -185 263 -293 393 -501 600
-338 338 -690 590 -1110 796 -378 185 -756 302 -1255 386 -75 12 -184 16 -510
18 -228 2 -428 1 -445 -1z m895 -363 c226 -32 595 -119 745 -176 421 -160 668
-289 979 -512 60 -43 141 -105 179 -138 39 -33 93 -78 121 -101 75 -60 290
-285 402 -422 121 -146 171 -214 264 -362 40 -63 81 -127 91 -141 9 -14 56
-104 104 -199 193 -386 313 -773 377 -1215 20 -141 23 -199 23 -485 0 -286 -3
-344 -23 -485 -65 -448 -186 -837 -382 -1221 -101 -199 -100 -198 -217 -374
-164 -249 -261 -366 -478 -585 -183 -183 -248 -240 -430 -375 -311 -230 -576
-370 -1010 -535 -150 -57 -518 -144 -750 -177 -140 -20 -200 -23 -485 -23
-285 0 -345 3 -485 23 -232 33 -600 120 -750 177 -444 169 -687 298 -1010 536
-188 139 -240 184 -420 364 -217 216 -369 404 -515 635 -40 63 -81 127 -91
141 -9 14 -56 104 -104 199 -193 386 -313 773 -377 1215 -20 141 -23 199 -23
485 0 286 3 344 23 485 64 442 184 829 377 1215 48 95 95 185 104 199 10 14
51 78 91 141 93 148 143 216 264 362 112 137 327 362 402 422 28 23 82 68 121
101 89 76 255 195 403 289 279 177 679 352 973 427 284 72 466 106 722 133 22
2 173 3 335 1 239 -2 324 -6 450 -24z"/>
<path d="M4785 8294 c-646 -89 -1143 -293 -1625 -668 -121 -95 -350 -314 -449
-430 -418 -493 -672 -1070 -751 -1706 -13 -109 -13 -621 0 -730 79 -636 337
-1224 750 -1705 108 -125 326 -334 451 -431 433 -337 900 -544 1444 -641 156
-27 169 -28 520 -28 351 0 364 1 520 28 838 149 1547 588 2053 1271 269 364
475 838 556 1282 41 224 46 293 46 589 0 154 -5 319 -10 365 -79 636 -333
1213 -751 1706 -99 116 -328 335 -449 430 -428 333 -886 538 -1420 636 -161
30 -174 31 -510 33 -190 2 -358 1 -375 -1z m510 -264 c199 -14 291 -27 446
-60 771 -167 1433 -633 1854 -1305 401 -639 536 -1427 373 -2165 -164 -743
-609 -1388 -1248 -1811 -213 -141 -465 -261 -719 -340 -568 -179 -1184 -179
-1752 0 -660 207 -1223 644 -1594 1236 -400 638 -536 1427 -373 2165 164 743
609 1388 1248 1811 212 140 466 261 719 340 341 108 709 153 1046 129z"/>
<path d="M4905 7373 c-160 -24 -381 -88 -585 -169 -544 -219 -1036 -705 -1264
-1249 -83 -199 -133 -364 -166 -544 -17 -98 -20 -156 -20 -396 0 -346 11 -428
97 -700 189 -597 568 -1059 1138 -1388 147 -85 427 -188 660 -244 120 -28 120
-28 470 -28 350 0 350 0 470 28 427 102 772 273 1071 530 347 299 589 667 727
1102 86 272 97 354 97 700 0 346 -11 428 -97 700 -189 597 -568 1059 -1138
1388 -148 86 -429 189 -660 243 -118 28 -127 28 -445 30 -179 1 -338 0 -355
-3z m506 -203 c295 -23 465 -68 746 -198 157 -73 230 -117 382 -230 342 -253
608 -626 754 -1052 137 -403 137 -947 0 -1350 -170 -497 -499 -911 -937 -1180
-74 -45 -291 -148 -392 -186 -419 -158 -1011 -161 -1436 -7 -105 37 -334 144
-414 193 -438 269 -767 683 -937 1180 -137 403 -137 947 0 1350 146 426 412
799 754 1052 153 114 225 157 388 232 265 123 422 166 686 191 183 16 245 17
406 5z"/>
<path d="M4830 6584 c-272 -58 -561 -217 -752 -411 -202 -206 -344 -461 -404
-723 -21 -94 -24 -129 -24 -325 0 -196 3 -231 24 -325 114 -502 511 -932 1009
-1094 147 -48 211 -56 442 -56 283 0 398 23 614 126 425 201 736 582 837 1024
21 94 24 129 24 325 0 196 -3 231 -24 325 -60 262 -202 517 -404 723 -193 196
-485 356 -757 412 -99 20 -490 20 -585 -1z m625 -153 c137 -35 359 -139 466
-218 121 -88 263 -240 341 -364 50 -79 132 -263 158 -354 67 -239 67 -501 0
-740 -26 -91 -108 -275 -158 -354 -78 -124 -220 -276 -341 -364 -105 -78 -328
-183 -466 -219 -117 -31 -126 -32 -330 -32 -204 0 -213 1 -330 32 -86 23 -160
52 -261 102 -203 100 -306 180 -444 346 -88 104 -126 165 -187 300 -87 188
-123 354 -123 559 0 205 36 371 123 559 61 135 99 196 187 300 138 166 241
246 444 346 226 112 360 141 626 135 157 -3 188 -6 295 -34z"/>
</g>
</svg>
